<?xml version="1.0" encoding="utf-8"?>
<!-- Svg Vector Icons : http://www.onlinewebfonts.com/icon -->
<!DOCTYPE svg PUBLIC "-//W3C//DTD SVG 1.1//EN" "http://www.w3.org/Graphics/SVG/1.1/DTD/svg11.dtd">
<svg version="1.1" xmlns="http://www.w3.org/2000/svg" xmlns:xlink="http://www.w3.org/1999/xlink" x="0px" y="0px" viewBox="0 0 1000 1000" enable-background="new 0 0 1000 1000" xml:space="preserve">
<metadata> Svg Vector Icons : http://www.onlinewebfonts.com/icon </metadata>
<g><g transform="translate(0.000000,511.000000) scale(0.100000,-0.100000)"><path d="M5940.3,4968.6c-31.4-13.8-62.9-39.3-68.8-57c-17.7-45.2-21.6-1882.8-3.9-1924c21.6-51.1,117.9-96.3,176.9-80.6c27.5,5.9,66.8,35.4,88.4,60.9c37.3,49.1,39.3,82.5,39.3,978.7c0,894.2-2,929.6-39.3,976.8C6085.7,4984.3,6016.9,5000.1,5940.3,4968.6z"/><path d="M3287.1,3866.1c-68.8-47.2-88.4-116-55-190.6c15.7-35.4,316.4-351.8,674.1-705.6c583.7-581.7,652.5-644.6,709.5-644.6c86.5,0,161.2,74.7,161.2,161.2c0,59-59,125.8-674.1,738.9C3391.2,3934.8,3389.3,3936.8,3287.1,3866.1z"/><path d="M8560,3860.2c-31.4-19.7-340-318.4-682-662.3c-693.7-695.7-699.6-703.6-589.6-813.6c117.9-116,102.2-127.7,843.1,615.1c611.2,611.2,674.1,678,674.1,737c0,76.7-74.7,161.2-141.5,161.2C8638.7,3897.5,8593.5,3879.8,8560,3860.2z"/><path d="M5244.5,2519.8c-90.4-66.8-133.6-224-155.3-558.1c-11.8-161.2-23.6-314.4-29.5-338c-3.9-25.5-88.4-108.1-210.3-204.4c-269.3-216.2-324.3-267.3-389.1-369.5c-149.4-229.9-15.7-371.4,550.3-583.7c125.8-47.2,214.2-92.4,231.9-117.9c13.8-23.6,64.9-145.4,114-271.2c265.3-699.6,416.7-719.3,908-121.9c80.6,98.3,165.1,190.6,188.7,202.4c23.6,13.8,102.2,25.5,172.9,25.5c198.5,0,516.9,37.3,611.2,70.8c104.2,35.4,167.1,94.3,182.8,165.1c19.7,90.4-66.8,302.7-228,560.1c-82.5,129.7-153.3,251.6-161.2,269.3c-5.9,19.6,17.7,143.5,55,275.1c117.9,420.6,125.8,615.1,31.4,711.4c-74.7,72.7-279.1,68.8-619.1-15.7c-159.2-39.3-304.6-70.8-324.3-70.8c-19.6,0-153.3,76.7-294.8,169C5517.7,2553.2,5356.6,2604.3,5244.5,2519.8z M5702.5,2059.9c137.6-92.4,285-182.8,326.2-198.5c102.2-43.2,233.9-27.5,536.5,62.9c334.1,98.3,334.1,98.3,334.1,53.1c0-19.6-31.4-129.7-68.8-241.7c-94.3-281-131.7-467.7-108.1-548.3c23.6-82.5,92.4-202.4,259.4-442.2c72.7-108.1,133.6-206.4,133.6-218.2c0-17.7-94.3-27.5-357.7-33.4c-296.7-5.9-373.4-13.8-434.3-45.2c-82.5-39.3-174.9-139.5-381.3-412.7c-74.7-96.3-145.4-176.9-161.1-176.9c-15.7,0-64.9,110-127.7,294.8c-55,163.1-121.9,328.2-147.4,369.5c-57,94.3-147.4,145.4-473.7,271.2c-145.4,55-273.2,108.1-281,116c-7.9,7.9,88.4,98.3,216.2,200.5c283,228,338,281,375.4,369.5c17.7,43.2,37.4,198.5,49.1,406.8c11.8,186.7,29.5,340,41.3,340C5443,2227,5564.9,2152.3,5702.5,2059.9z"/><path d="M2210.1,1236.5c-102.2-45.2-119.9-171-35.4-249.6l51.1-47.2l929.6-5.9l929.6-5.9l60.9,53.1c80.6,66.8,82.5,147.4,3.9,226l-57,57H3181C2461.7,1262,2259.2,1256.1,2210.1,1236.5z"/><path d="M7907.5,1244.3c-88.4-35.4-114-176.9-47.2-257.5l37.3-47.2h955.2c927.6,0,955.1,2,992.5,39.3c66.8,66.8,72.7,151.3,15.7,218.2l-49.1,57l-931.6,3.9C8367.4,1260,7931.1,1254.2,7907.5,1244.3z"/><path d="M4049.6,320.6C3919.9,259.7,217.3-3441,148.5-3578.6c-86.5-172.9-55-424.5,76.7-630.9c100.2-151.3,387.2-414.7,526.7-481.5c149.4-70.7,300.7-90.4,446.1-59l110,23.6L3220.3-2818C4338.5-1701.7,5150.2-874.3,5175.8-829.1c33.4,62.9,43.2,112,43.2,235.8c-2,235.8-70.7,371.4-322.3,621c-239.8,241.7-379.3,316.4-609.2,326.3C4167.5,359.9,4120.4,354,4049.6,320.6z M4419.1,27.8c39.3-19.6,163.1-129.7,273.2-241.7c206.4-212.2,261.4-310.5,235.8-412.7c-7.9-25.5-856.9-890.3-1914.2-1947.6c-2063.6-2061.6-1926-1935.8-2083.2-1871c-88.4,37.3-448.1,387.2-499.2,485.4c-19.7,41.3-37.3,106.1-37.3,147.4c0,72.7,49.1,123.8,1902.4,1975.1C4147.9,16,4199,65.1,4271.7,65.1C4313,65.1,4377.8,47.4,4419.1,27.8z"/><path d="M7288.5-190.4c-110-110.1-106.1-116,607.3-829.4c353.8-353.8,668.2-654.4,699.6-666.2c119.9-49.1,243.7,70.8,198.5,190.6c-9.8,25.5-312.5,343.9-674.1,705.6C7394.6-60.7,7408.4-70.5,7288.5-190.4z"/><path d="M5946.2-721c-94.3-37.3-92.4-19.6-90.4-1025.9c2-941.4,3.9-947.3,45.2-992.5c53.1-57,151.3-59,214.2-7.9l47.2,37.3l5.9,947.3l5.9,945.3l-59,57C6056.2-699.4,6016.9-691.5,5946.2-721z"/></g></g>
</svg>